<?xml version="1.0" standalone="no"?>
<!DOCTYPE svg PUBLIC "-//W3C//DTD SVG 20010904//EN"
 "http://www.w3.org/TR/2001/REC-SVG-20010904/DTD/svg10.dtd">
<svg version="1.0" xmlns="http://www.w3.org/2000/svg"
 width="840.000000pt" height="754.000000pt" viewBox="0 0 840.000000 754.000000"
 preserveAspectRatio="xMidYMid meet">

<g transform="translate(0.000000,754.000000) scale(0.100000,-0.100000)"
fill="#e04887" stroke="none">
<path d="M4054 7067 c-431 -257 -698 -612 -769 -1021 -38 -222 5 -455 125
-685 72 -136 149 -239 282 -376 l117 -121 -72 -42 c-172 -102 -402 -292 -531
-440 -266 -306 -402 -583 -468 -952 -20 -116 -17 -566 5 -700 46 -277 145
-524 311 -774 195 -294 499 -587 851 -823 96 -64 247 -153 260 -153 4 0 -28
37 -70 82 -365 388 -659 880 -819 1373 -43 133 -89 325 -110 461 -13 83 -14
124 -6 230 21 260 79 474 185 689 82 165 173 292 300 420 152 152 350 290 509
352 l69 27 75 -39 c398 -208 730 -558 865 -910 65 -170 80 -252 74 -405 -11
-263 -84 -477 -228 -670 -60 -81 -183 -203 -248 -246 -40 -26 -41 -26 -68 -9
-64 41 -126 101 -181 174 -188 249 -296 666 -304 1169 -2 89 -6 158 -10 154
-13 -13 -77 -190 -107 -294 -85 -297 -99 -527 -50 -838 55 -345 237 -596 614
-842 66 -43 130 -81 142 -85 48 -11 272 140 434 295 335 319 511 686 535 1117
8 130 -3 208 -50 371 -156 541 -550 1018 -1040 1261 l-75 37 92 96 c123 130
214 258 292 415 103 208 144 392 130 585 -29 407 -231 754 -574 988 -76 52
-239 142 -257 142 -4 0 38 -46 92 -102 285 -294 435 -610 451 -949 18 -375
-138 -696 -433 -891 -80 -53 -167 -98 -188 -98 -25 0 -163 76 -235 129 -187
139 -318 334 -383 574 -30 109 -32 367 -5 495 40 183 111 351 213 505 64 95
211 255 304 330 60 48 41 46 -46 -6z"/>
<path d="M2000 5700 c-58 -8 -69 -13 -98 -47 -47 -54 -128 -224 -151 -318 -46
-182 -52 -378 -21 -636 28 -222 57 -323 142 -478 100 -183 287 -398 466 -534
87 -66 92 -66 34 -2 -120 134 -229 326 -291 510 -54 162 -72 273 -78 476 -15
496 83 717 350 786 89 22 281 13 402 -21 107 -29 201 -64 274 -100 29 -15 57
-26 63 -24 16 6 -113 119 -206 182 -135 91 -293 156 -461 191 -93 20 -331 28
-425 15z"/>
<path d="M6070 5704 c-243 -43 -384 -95 -533 -196 -70 -47 -185 -154 -176
-163 4 -3 61 8 127 24 205 52 360 73 502 69 153 -5 196 -21 277 -105 104 -106
145 -237 159 -499 10 -198 -26 -401 -111 -630 -64 -170 -122 -282 -279 -539
-38 -63 177 171 264 288 204 271 331 535 390 807 27 122 37 345 21 464 -28
205 -111 381 -215 454 -39 27 -41 27 -220 29 -100 0 -192 -1 -206 -3z"/>
<path d="M1085 5007 c-137 -35 -274 -152 -310 -264 -10 -32 -20 -97 -23 -145
-5 -106 18 -194 76 -283 36 -56 124 -145 143 -145 11 0 11 -2 -1 40 -35 124
-31 294 11 406 63 167 293 313 497 314 35 1 36 1 17 16 -70 52 -306 88 -410
61z"/>
<path d="M7115 4976 c-33 -8 -87 -24 -120 -37 l-60 -23 97 -12 c181 -24 276
-63 356 -147 73 -78 97 -159 97 -322 -1 -82 -6 -140 -19 -184 -9 -35 -15 -65
-12 -68 3 -3 30 19 61 48 37 35 68 77 92 127 32 64 37 85 41 161 9 196 -77
371 -217 438 -47 23 -71 27 -156 30 -59 1 -124 -3 -160 -11z"/>
<path d="M1335 4013 c-194 -17 -441 -65 -595 -114 -210 -67 -419 -193 -505
-306 -34 -45 -36 -51 -30 -98 9 -76 68 -240 125 -356 85 -171 172 -291 305
-424 103 -103 141 -133 262 -208 538 -331 988 -496 1393 -510 93 -3 231 5 210
11 -3 1 -59 11 -125 22 -439 74 -877 260 -1175 499 -95 76 -324 305 -381 381
-137 181 -234 484 -186 577 72 138 345 312 717 458 80 31 154 60 165 65 20 9
-95 11 -180 3z"/>
<path d="M6940 4011 c9 -5 65 -30 125 -56 279 -119 518 -258 633 -369 79 -75
102 -118 102 -188 -1 -292 -293 -657 -795 -993 -302 -202 -581 -319 -900 -380
l-80 -15 130 5 c502 20 1027 204 1424 500 106 79 321 302 424 440 69 92 126
202 155 297 25 79 46 229 38 261 -8 34 -107 138 -183 195 -185 135 -452 233
-773 282 -153 24 -322 35 -300 21z"/>
<path d="M559 2484 c-154 -47 -246 -187 -238 -363 3 -65 10 -89 43 -157 48
-97 150 -204 246 -256 88 -49 217 -88 314 -95 l81 -6 -80 65 c-103 85 -212
197 -264 272 -57 82 -95 203 -87 277 7 69 35 146 80 222 l35 57 -42 -1 c-23 0
-63 -7 -88 -15z"/>
<path d="M7780 2431 c156 -253 83 -486 -243 -773 l-81 -71 76 6 c108 9 220 48
310 107 97 64 158 133 211 239 41 83 42 87 42 185 -1 89 -4 108 -29 163 -49
108 -147 178 -263 190 l-55 6 32 -52z"/>
<path d="M5875 1910 c-64 -5 -162 -21 -232 -39 -515 -129 -933 -347 -1247
-651 -146 -141 -157 -165 -32 -71 472 355 1018 546 1506 528 521 -20 969 -190
1234 -468 42 -43 76 -84 76 -91 0 -22 -153 -161 -247 -225 -176 -121 -399
-214 -646 -270 -121 -28 -125 -28 -457 -27 -351 0 -508 12 -770 55 -227 38
-470 108 -600 174 -148 75 17 -41 190 -133 437 -233 1130 -380 1575 -333 667
71 1192 327 1464 716 23 32 41 64 41 72 0 19 -201 224 -290 296 -163 132 -424
277 -621 345 -119 42 -314 89 -439 106 -136 19 -366 26 -505 16z"/>
<path d="M1798 1789 c-373 -36 -683 -177 -904 -412 -73 -76 -163 -197 -179
-239 -3 -8 12 -41 34 -74 217 -324 625 -560 1161 -669 268 -55 436 -66 685
-45 425 36 817 145 1163 325 115 60 292 169 292 179 0 3 -46 -17 -102 -44
-237 -112 -509 -183 -853 -222 -138 -15 -633 -15 -774 1 -296 32 -632 147
-844 288 -140 93 -267 233 -267 293 0 73 159 263 300 357 141 95 348 186 533
236 l82 22 -40 7 c-51 9 -176 8 -287 -3z"/>
</g>
</svg>
